<svg xmlns="http://www.w3.org/2000/svg" xmlns:xlink="http://www.w3.org/1999/xlink" width="500" zoomAndPan="magnify" viewBox="0 0 375 374.999991" height="500" preserveAspectRatio="xMidYMid meet" version="1.0"><defs><g/><clipPath id="53ca50e25c"><path d="M 187.5 0 C 83.945312 0 0 83.945312 0 187.5 C 0 291.054688 83.945312 375 187.5 375 C 291.054688 375 375 291.054688 375 187.5 C 375 83.945312 291.054688 0 187.5 0 Z M 187.5 0 " clip-rule="nonzero"/></clipPath><clipPath id="fc919dcd51"><path d="M 12.070312 12.070312 L 362.929688 12.070312 L 362.929688 362.929688 L 12.070312 362.929688 Z M 12.070312 12.070312 " clip-rule="nonzero"/></clipPath><clipPath id="7f8a14dcc6"><path d="M 187.5 12.070312 C 90.613281 12.070312 12.070312 90.613281 12.070312 187.5 C 12.070312 284.386719 90.613281 362.929688 187.5 362.929688 C 284.386719 362.929688 362.929688 284.386719 362.929688 187.5 C 362.929688 90.613281 284.386719 12.070312 187.5 12.070312 Z M 187.5 12.070312 " clip-rule="nonzero"/></clipPath><clipPath id="a66c0a733b"><path d="M 330.089844 180.300781 L 344.484375 180.300781 L 344.484375 194.699219 L 330.089844 194.699219 Z M 330.089844 180.300781 " clip-rule="nonzero"/></clipPath><clipPath id="c01aeffd5e"><path d="M 337.28125 194.699219 C 333.320312 194.699219 330.089844 191.464844 330.089844 187.496094 C 330.089844 183.535156 333.320312 180.300781 337.28125 180.300781 C 341.253906 180.300781 344.476562 183.535156 344.476562 187.496094 C 344.484375 191.464844 341.253906 194.699219 337.28125 194.699219 Z M 337.28125 184.261719 C 335.503906 184.261719 334.050781 185.71875 334.050781 187.496094 C 334.050781 189.273438 335.503906 190.726562 337.28125 190.726562 C 339.058594 190.726562 340.515625 189.273438 340.515625 187.496094 C 340.515625 185.71875 339.070312 184.261719 337.28125 184.261719 Z M 337.28125 184.261719 " clip-rule="nonzero"/></clipPath><clipPath id="63afa44e0a"><path d="M 118 138.121094 L 186 138.121094 L 186 242 L 118 242 Z M 118 138.121094 " clip-rule="nonzero"/></clipPath><clipPath id="eff2edced1"><path d="M 191 138.121094 L 258 138.121094 L 258 242 L 191 242 Z M 191 138.121094 " clip-rule="nonzero"/></clipPath><clipPath id="a8b48ed43a"><path d="M 36.753906 180.300781 L 51.148438 180.300781 L 51.148438 194.699219 L 36.753906 194.699219 Z M 36.753906 180.300781 " clip-rule="nonzero"/></clipPath><clipPath id="0e55efe5d3"><path d="M 43.945312 194.699219 C 39.984375 194.699219 36.753906 191.464844 36.753906 187.496094 C 36.753906 183.535156 39.984375 180.300781 43.945312 180.300781 C 47.917969 180.300781 51.136719 183.535156 51.136719 187.496094 C 51.148438 191.464844 47.917969 194.699219 43.945312 194.699219 Z M 43.945312 184.261719 C 42.167969 184.261719 40.710938 185.71875 40.710938 187.496094 C 40.710938 189.273438 42.167969 190.726562 43.945312 190.726562 C 45.722656 190.726562 47.179688 189.273438 47.179688 187.496094 C 47.179688 185.71875 45.734375 184.261719 43.945312 184.261719 Z M 43.945312 184.261719 " clip-rule="nonzero"/></clipPath></defs><rect x="-37.5" width="450" fill="#ffffff" y="-37.499999" height="449.999989" fill-opacity="1"/><rect x="-37.5" width="450" fill="#ffffff" y="-37.499999" height="449.999989" fill-opacity="1"/><g clip-path="url(#53ca50e25c)"><rect x="-37.5" width="450" fill="#ffffff" y="-37.499999" height="449.999989" fill-opacity="1"/></g><g clip-path="url(#fc919dcd51)"><g clip-path="url(#7f8a14dcc6)"><path stroke-linecap="butt" transform="matrix(0.75, 0, 0, 0.75, 12.070154, 12.07015)" fill="none" stroke-linejoin="miter" d="M 233.906476 0.000216977 C 104.724176 0.000216977 0.000210977 104.724182 0.000210977 233.906482 C 0.000210977 363.088782 104.724176 467.812748 233.906476 467.812748 C 363.088776 467.812748 467.812742 363.088782 467.812742 233.906482 C 467.812742 104.724182 363.088776 0.000216977 233.906476 0.000216977 Z M 233.906476 0.000216977 " stroke="#000000" stroke-width="6" stroke-opacity="1" stroke-miterlimit="4"/></g></g><g clip-path="url(#a66c0a733b)"><g clip-path="url(#c01aeffd5e)"><path fill="#000000" d="M 330.089844 180.300781 L 344.484375 180.300781 L 344.484375 194.699219 L 330.089844 194.699219 Z M 330.089844 180.300781 " fill-opacity="1" fill-rule="nonzero"/></g></g><g clip-path="url(#63afa44e0a)"><path fill="#000000" d="M 151.664062 138.601562 C 171.0625 138.601562 185.082031 154.632812 185.066406 178.351562 C 184.957031 212.8125 159.039062 237.195312 121.648438 241.878906 C 118.183594 242.308594 116.851562 237.496094 120.035156 236.089844 C 134.386719 229.695312 141.632812 221.609375 142.566406 213.605469 C 143.261719 207.609375 140.019531 202.371094 135.921875 201.390625 C 125.335938 198.839844 118.246094 185.660156 118.246094 172.023438 C 118.246094 153.570312 133.199219 138.601562 151.664062 138.601562 Z M 151.664062 138.601562 " fill-opacity="1" fill-rule="nonzero"/></g><g clip-path="url(#eff2edced1)"><path fill="#000000" d="M 224.578125 138.601562 C 243.976562 138.601562 257.996094 154.632812 257.980469 178.351562 C 257.867188 212.8125 231.949219 237.195312 194.558594 241.878906 C 191.09375 242.308594 189.765625 237.496094 192.945312 236.089844 C 207.296875 229.695312 214.546875 221.609375 215.480469 213.605469 C 216.175781 207.609375 212.929688 202.371094 208.832031 201.390625 C 198.246094 198.839844 191.160156 185.660156 191.160156 172.023438 C 191.160156 153.570312 206.113281 138.601562 224.578125 138.601562 Z M 224.578125 138.601562 " fill-opacity="1" fill-rule="nonzero"/></g><g fill="#000000" fill-opacity="1"><g transform="translate(137.670915, 80.858237)"><g><path d="M 37.875 -12.984375 C 37.976562 -12.410156 37.992188 -11.921875 37.921875 -11.515625 C 37.859375 -11.117188 37.773438 -10.769531 37.671875 -10.46875 C 37.578125 -10.164062 37.476562 -9.894531 37.375 -9.65625 C 37.269531 -9.414062 37.21875 -9.164062 37.21875 -8.90625 C 37.25 -8.257812 37.109375 -7.617188 36.796875 -6.984375 C 36.484375 -6.347656 36.082031 -5.757812 35.59375 -5.21875 C 35.101562 -4.675781 34.554688 -4.195312 33.953125 -3.78125 C 33.347656 -3.375 32.785156 -3.070312 32.265625 -2.875 C 31.265625 -2.519531 30.273438 -2.378906 29.296875 -2.453125 C 28.316406 -2.535156 27.328125 -2.816406 26.328125 -3.296875 C 25.335938 -3.773438 24.320312 -4.410156 23.28125 -5.203125 C 22.25 -6.003906 21.160156 -6.941406 20.015625 -8.015625 C 19.335938 -7.484375 18.691406 -7.046875 18.078125 -6.703125 C 17.460938 -6.367188 16.945312 -6.125 16.53125 -5.96875 C 16.175781 -5.84375 15.675781 -5.707031 15.03125 -5.5625 C 14.382812 -5.425781 13.628906 -5.34375 12.765625 -5.3125 C 11.898438 -5.289062 10.957031 -5.335938 9.9375 -5.453125 C 8.914062 -5.566406 7.863281 -5.828125 6.78125 -6.234375 C 6.539062 -5.796875 6.304688 -5.328125 6.078125 -4.828125 C 5.859375 -4.328125 5.65625 -3.859375 5.46875 -3.421875 C 5.289062 -2.984375 5.125 -2.601562 4.96875 -2.28125 C 4.820312 -1.96875 4.707031 -1.785156 4.625 -1.734375 C 4.707031 -1.765625 4.710938 -1.765625 4.640625 -1.734375 C 4.578125 -1.710938 4.484375 -1.691406 4.359375 -1.671875 C 4.242188 -1.660156 4.125 -1.648438 4 -1.640625 C 3.875 -1.628906 3.796875 -1.664062 3.765625 -1.75 C 3.710938 -1.894531 3.734375 -2.140625 3.828125 -2.484375 C 3.929688 -2.828125 4.066406 -3.234375 4.234375 -3.703125 C 4.410156 -4.171875 4.617188 -4.671875 4.859375 -5.203125 C 5.097656 -5.734375 5.332031 -6.253906 5.5625 -6.765625 C 4.6875 -7.148438 3.796875 -7.660156 2.890625 -8.296875 C 1.992188 -8.929688 1.128906 -9.707031 0.296875 -10.625 C -0.523438 -11.550781 -1.304688 -12.628906 -2.046875 -13.859375 C -2.796875 -15.085938 -3.460938 -16.515625 -4.046875 -18.140625 C -5.035156 -20.878906 -5.628906 -23.414062 -5.828125 -25.75 C -6.035156 -28.09375 -5.976562 -30.207031 -5.65625 -32.09375 C -5.34375 -33.988281 -4.851562 -35.664062 -4.1875 -37.125 C -3.519531 -38.59375 -2.816406 -39.832031 -2.078125 -40.84375 C -1.347656 -41.863281 -0.664062 -42.644531 -0.03125 -43.1875 C 0.59375 -43.738281 1.019531 -44.070312 1.25 -44.1875 C 1.289062 -44.175781 1.398438 -44.203125 1.578125 -44.265625 C 1.753906 -44.328125 1.945312 -44.378906 2.15625 -44.421875 C 2.363281 -44.460938 2.5625 -44.46875 2.75 -44.4375 C 2.9375 -44.40625 3.066406 -44.285156 3.140625 -44.078125 C 3.285156 -44.253906 3.476562 -44.429688 3.71875 -44.609375 C 3.96875 -44.796875 4.351562 -44.984375 4.875 -45.171875 C 5.570312 -45.421875 6.429688 -45.644531 7.453125 -45.84375 C 8.472656 -46.050781 9.582031 -46.132812 10.78125 -46.09375 C 11.976562 -46.050781 13.238281 -45.828125 14.5625 -45.421875 C 15.894531 -45.015625 17.203125 -44.3125 18.484375 -43.3125 C 19.773438 -42.320312 21.007812 -40.992188 22.1875 -39.328125 C 23.363281 -37.660156 24.410156 -35.550781 25.328125 -33 C 26.285156 -30.375 26.875 -27.960938 27.09375 -25.765625 C 27.3125 -23.566406 27.273438 -21.566406 26.984375 -19.765625 C 26.703125 -17.972656 26.21875 -16.367188 25.53125 -14.953125 C 24.84375 -13.535156 24.070312 -12.285156 23.21875 -11.203125 C 23.769531 -10.671875 24.425781 -10.132812 25.1875 -9.59375 C 25.945312 -9.050781 26.753906 -8.582031 27.609375 -8.1875 C 28.472656 -7.800781 29.363281 -7.546875 30.28125 -7.421875 C 31.207031 -7.296875 32.113281 -7.390625 33 -7.703125 C 33.957031 -8.054688 34.894531 -8.660156 35.8125 -9.515625 C 36.738281 -10.378906 37.425781 -11.535156 37.875 -12.984375 Z M 1.8125 -40.96875 C 1.082031 -40.050781 0.46875 -38.925781 -0.03125 -37.59375 C -0.539062 -36.257812 -0.859375 -34.710938 -0.984375 -32.953125 C -1.109375 -31.203125 -1 -29.226562 -0.65625 -27.03125 C -0.3125 -24.84375 0.34375 -22.410156 1.3125 -19.734375 C 2.070312 -17.628906 3.046875 -15.8125 4.234375 -14.28125 C 5.421875 -12.757812 6.6875 -11.523438 8.03125 -10.578125 C 8.664062 -11.390625 9.351562 -12.09375 10.09375 -12.6875 C 10.84375 -13.289062 11.722656 -13.773438 12.734375 -14.140625 C 14.171875 -14.660156 15.550781 -14.84375 16.875 -14.6875 C 18.195312 -14.53125 19.441406 -14.078125 20.609375 -13.328125 C 21.140625 -14.421875 21.519531 -15.710938 21.75 -17.203125 C 21.976562 -18.691406 22.050781 -20.257812 21.96875 -21.90625 C 21.894531 -23.550781 21.6875 -25.234375 21.34375 -26.953125 C 21 -28.671875 20.546875 -30.3125 19.984375 -31.875 C 19.234375 -33.945312 18.3125 -35.785156 17.21875 -37.390625 C 16.125 -39.003906 14.9375 -40.316406 13.65625 -41.328125 C 12.375 -42.335938 11.035156 -43.007812 9.640625 -43.34375 C 8.253906 -43.675781 6.890625 -43.597656 5.546875 -43.109375 C 5.171875 -42.984375 4.847656 -42.8125 4.578125 -42.59375 C 4.316406 -42.375 4.09375 -42.160156 3.90625 -41.953125 C 3.71875 -41.753906 3.554688 -41.578125 3.421875 -41.421875 C 3.296875 -41.265625 3.191406 -41.171875 3.109375 -41.140625 C 2.941406 -41.078125 2.757812 -41.066406 2.5625 -41.109375 Z M 9.28125 -9.765625 C 9.707031 -9.492188 10.164062 -9.253906 10.65625 -9.046875 C 11.15625 -8.835938 11.671875 -8.679688 12.203125 -8.578125 C 12.734375 -8.472656 13.273438 -8.429688 13.828125 -8.453125 C 14.378906 -8.484375 14.941406 -8.597656 15.515625 -8.796875 C 16.222656 -9.054688 16.925781 -9.425781 17.625 -9.90625 C 16.207031 -10.882812 15.019531 -11.507812 14.0625 -11.78125 C 13.101562 -12.050781 12.300781 -12.070312 11.65625 -11.84375 C 11.382812 -11.75 11.113281 -11.597656 10.84375 -11.390625 C 10.582031 -11.191406 10.34375 -10.984375 10.125 -10.765625 C 9.90625 -10.554688 9.71875 -10.351562 9.5625 -10.15625 C 9.414062 -9.96875 9.320312 -9.835938 9.28125 -9.765625 Z M 9.28125 -9.765625 "/></g></g></g><g fill="#000000" fill-opacity="1"><g transform="translate(167.21662, 70.302006)"><g><path d="M 20.109375 -2.0625 C 20.128906 -1.882812 20.003906 -1.65625 19.734375 -1.375 C 19.472656 -1.09375 19.117188 -0.929688 18.671875 -0.890625 C 18.523438 -0.878906 18.265625 -0.925781 17.890625 -1.03125 C 17.523438 -1.132812 17.132812 -1.300781 16.71875 -1.53125 C 16.300781 -1.757812 15.914062 -2.050781 15.5625 -2.40625 C 15.21875 -2.757812 15.019531 -3.171875 14.96875 -3.640625 C 14.90625 -3.859375 14.851562 -4.15625 14.8125 -4.53125 C 14.78125 -4.914062 14.738281 -5.363281 14.6875 -5.875 C 14.613281 -6.644531 14.53125 -7.507812 14.4375 -8.46875 C 14.351562 -9.4375 14.285156 -10.40625 14.234375 -11.375 C 14.148438 -10.65625 14.046875 -9.910156 13.921875 -9.140625 C 13.804688 -8.378906 13.632812 -7.613281 13.40625 -6.84375 C 13.175781 -6.070312 12.898438 -5.304688 12.578125 -4.546875 C 12.265625 -3.785156 11.882812 -3.054688 11.4375 -2.359375 C 11.207031 -1.972656 10.945312 -1.644531 10.65625 -1.375 C 10.375 -1.101562 10.09375 -0.867188 9.8125 -0.671875 C 9.539062 -0.472656 9.28125 -0.320312 9.03125 -0.21875 C 8.789062 -0.125 8.601562 -0.0703125 8.46875 -0.0625 C 8.382812 -0.0507812 8.191406 -0.113281 7.890625 -0.25 C 7.597656 -0.394531 7.25 -0.582031 6.84375 -0.8125 C 6.4375 -1.039062 6.003906 -1.296875 5.546875 -1.578125 C 5.097656 -1.859375 4.660156 -2.140625 4.234375 -2.421875 C 3.804688 -2.703125 3.421875 -2.96875 3.078125 -3.21875 C 2.742188 -3.46875 2.5 -3.675781 2.34375 -3.84375 C 2.195312 -4.03125 2.046875 -4.351562 1.890625 -4.8125 C 1.734375 -5.269531 1.582031 -5.835938 1.4375 -6.515625 C 1.300781 -7.191406 1.164062 -7.957031 1.03125 -8.8125 C 0.90625 -9.664062 0.796875 -10.582031 0.703125 -11.5625 C 0.660156 -12.09375 0.609375 -12.773438 0.546875 -13.609375 C 0.484375 -14.441406 0.4375 -15.34375 0.40625 -16.3125 C 0.375 -17.289062 0.351562 -18.273438 0.34375 -19.265625 C 0.34375 -20.265625 0.367188 -21.164062 0.421875 -21.96875 C 0.472656 -22.769531 0.5625 -23.425781 0.6875 -23.9375 C 0.820312 -24.445312 1.007812 -24.710938 1.25 -24.734375 C 1.40625 -24.753906 1.679688 -24.738281 2.078125 -24.6875 C 2.472656 -24.632812 2.867188 -24.625 3.265625 -24.65625 C 3.878906 -24.71875 4.304688 -24.8125 4.546875 -24.9375 C 4.785156 -25.070312 4.960938 -25.144531 5.078125 -25.15625 C 5.273438 -25.175781 5.390625 -25.019531 5.421875 -24.6875 C 5.421875 -24.582031 5.425781 -24.484375 5.4375 -24.390625 C 5.445312 -24.304688 5.4375 -24.207031 5.40625 -24.09375 C 5.394531 -23.976562 5.378906 -23.671875 5.359375 -23.171875 C 5.335938 -22.679688 5.3125 -22.050781 5.28125 -21.28125 C 5.257812 -20.507812 5.242188 -19.644531 5.234375 -18.6875 C 5.222656 -17.738281 5.222656 -16.738281 5.234375 -15.6875 C 5.253906 -14.644531 5.28125 -13.59375 5.3125 -12.53125 C 5.351562 -11.476562 5.414062 -10.472656 5.5 -9.515625 C 5.5625 -8.878906 5.640625 -8.238281 5.734375 -7.59375 C 5.828125 -6.957031 5.9375 -6.378906 6.0625 -5.859375 C 6.1875 -5.335938 6.332031 -4.921875 6.5 -4.609375 C 6.664062 -4.304688 6.847656 -4.160156 7.046875 -4.171875 C 7.222656 -4.191406 7.460938 -4.300781 7.765625 -4.5 C 8.078125 -4.695312 8.425781 -5.066406 8.8125 -5.609375 C 9.207031 -6.160156 9.625 -6.925781 10.0625 -7.90625 C 10.5 -8.894531 10.953125 -10.191406 11.421875 -11.796875 C 11.890625 -13.398438 12.351562 -15.363281 12.8125 -17.6875 C 13.28125 -20.007812 13.710938 -22.765625 14.109375 -25.953125 C 14.097656 -26.015625 14.128906 -26.0625 14.203125 -26.09375 C 14.273438 -26.125 14.359375 -26.144531 14.453125 -26.15625 C 14.703125 -26.175781 15.023438 -26.179688 15.421875 -26.171875 C 15.828125 -26.160156 16.210938 -26.128906 16.578125 -26.078125 C 16.941406 -26.023438 17.257812 -25.953125 17.53125 -25.859375 C 17.800781 -25.765625 17.945312 -25.648438 17.96875 -25.515625 C 18.050781 -24.648438 18.097656 -23.691406 18.109375 -22.640625 C 18.128906 -21.597656 18.140625 -20.519531 18.140625 -19.40625 C 18.148438 -18.300781 18.171875 -17.164062 18.203125 -16 C 18.234375 -14.84375 18.300781 -13.695312 18.40625 -12.5625 C 18.601562 -10.539062 18.851562 -8.609375 19.15625 -6.765625 C 19.457031 -4.929688 19.773438 -3.363281 20.109375 -2.0625 Z M 20.109375 -2.0625 "/></g></g></g><g fill="#000000" fill-opacity="1"><g transform="translate(185.219555, 68.029844)"><g><path d="M 23.609375 -10.0625 C 23.398438 -8.007812 22.910156 -6.191406 22.140625 -4.609375 C 21.378906 -3.035156 20.425781 -1.726562 19.28125 -0.6875 C 18.144531 0.351562 16.867188 1.117188 15.453125 1.609375 C 14.046875 2.097656 12.597656 2.265625 11.109375 2.109375 C 10.484375 2.046875 9.804688 1.90625 9.078125 1.6875 C 8.347656 1.46875 7.628906 1.148438 6.921875 0.734375 C 6.210938 0.328125 5.535156 -0.179688 4.890625 -0.796875 C 4.253906 -1.410156 3.703125 -2.144531 3.234375 -3 C 2.773438 -3.851562 2.4375 -4.832031 2.21875 -5.9375 C 2.007812 -7.050781 1.984375 -8.3125 2.140625 -9.71875 C 2.304688 -11.3125 2.648438 -12.742188 3.171875 -14.015625 C 3.703125 -15.296875 4.328125 -16.425781 5.046875 -17.40625 C 5.765625 -18.394531 6.550781 -19.222656 7.40625 -19.890625 C 8.269531 -20.566406 9.113281 -21.125 9.9375 -21.5625 C 10.769531 -22 11.554688 -22.304688 12.296875 -22.484375 C 13.046875 -22.671875 13.691406 -22.757812 14.234375 -22.75 C 14.515625 -22.738281 14.632812 -22.695312 14.59375 -22.625 C 14.550781 -22.550781 14.46875 -22.46875 14.34375 -22.375 C 14.21875 -22.289062 14.101562 -22.203125 14 -22.109375 C 13.90625 -22.023438 13.929688 -21.960938 14.078125 -21.921875 C 14.222656 -21.867188 14.335938 -21.816406 14.421875 -21.765625 C 14.503906 -21.722656 14.59375 -21.664062 14.6875 -21.59375 L 14.9375 -21.84375 C 15.082031 -21.925781 15.21875 -21.960938 15.34375 -21.953125 C 15.476562 -21.941406 15.585938 -21.914062 15.671875 -21.875 C 15.765625 -21.832031 15.84375 -21.804688 15.90625 -21.796875 C 15.96875 -21.796875 16.015625 -21.851562 16.046875 -21.96875 C 16.097656 -22.175781 16.179688 -22.289062 16.296875 -22.3125 C 16.410156 -22.332031 16.664062 -22.320312 17.0625 -22.28125 C 17.289062 -22.257812 17.632812 -22.15625 18.09375 -21.96875 C 18.5625 -21.78125 19.0625 -21.488281 19.59375 -21.09375 C 20.132812 -20.707031 20.675781 -20.207031 21.21875 -19.59375 C 21.757812 -18.976562 22.234375 -18.21875 22.640625 -17.3125 C 23.054688 -16.414062 23.359375 -15.367188 23.546875 -14.171875 C 23.742188 -12.972656 23.765625 -11.601562 23.609375 -10.0625 Z M 13.921875 -19.703125 C 13.191406 -19.367188 12.457031 -18.882812 11.71875 -18.25 C 10.988281 -17.613281 10.3125 -16.863281 9.6875 -16 C 9.0625 -15.132812 8.523438 -14.15625 8.078125 -13.0625 C 7.628906 -11.96875 7.34375 -10.800781 7.21875 -9.5625 C 7.070312 -8.207031 7.066406 -6.96875 7.203125 -5.84375 C 7.335938 -4.726562 7.597656 -3.765625 7.984375 -2.953125 C 8.367188 -2.140625 8.878906 -1.488281 9.515625 -1 C 10.148438 -0.507812 10.894531 -0.222656 11.75 -0.140625 C 12.507812 -0.0664062 13.285156 -0.203125 14.078125 -0.546875 C 14.867188 -0.890625 15.597656 -1.457031 16.265625 -2.25 C 16.941406 -3.050781 17.523438 -4.066406 18.015625 -5.296875 C 18.515625 -6.535156 18.847656 -7.988281 19.015625 -9.65625 C 19.191406 -11.351562 19.109375 -12.800781 18.765625 -14 C 18.429688 -15.195312 18.023438 -16.175781 17.546875 -16.9375 C 17.066406 -17.707031 16.585938 -18.269531 16.109375 -18.625 C 15.640625 -18.988281 15.347656 -19.175781 15.234375 -19.1875 C 14.953125 -19.21875 14.738281 -19.238281 14.59375 -19.25 C 14.445312 -19.269531 14.222656 -19.421875 13.921875 -19.703125 Z M 13.921875 -19.703125 "/></g></g></g><g fill="#000000" fill-opacity="1"><g transform="translate(205.164768, 70.103548)"><g><path d="M 18.765625 -30.78125 C 18.734375 -30.664062 18.628906 -30.375 18.453125 -29.90625 C 18.285156 -29.4375 18.066406 -28.8125 17.796875 -28.03125 C 17.523438 -27.25 17.195312 -26.34375 16.8125 -25.3125 C 16.4375 -24.289062 16.046875 -23.191406 15.640625 -22.015625 C 16.867188 -21.835938 18.03125 -21.648438 19.125 -21.453125 C 20.21875 -21.265625 21.128906 -21.070312 21.859375 -20.875 C 22.109375 -20.800781 22.3125 -20.691406 22.46875 -20.546875 C 22.632812 -20.398438 22.765625 -20.25 22.859375 -20.09375 C 22.953125 -19.945312 23.019531 -19.789062 23.0625 -19.625 C 23.101562 -19.457031 23.125 -19.320312 23.125 -19.21875 C 23.09375 -19.132812 23.078125 -19.046875 23.078125 -18.953125 C 23.078125 -18.859375 23.0625 -18.765625 23.03125 -18.671875 C 22.9375 -18.296875 22.671875 -17.957031 22.234375 -17.65625 C 21.796875 -17.363281 21.234375 -17.265625 20.546875 -17.359375 L 14.3125 -18.3125 C 13.863281 -16.96875 13.410156 -15.582031 12.953125 -14.15625 C 12.492188 -12.738281 12.039062 -11.328125 11.59375 -9.921875 C 11.144531 -8.515625 10.71875 -7.125 10.3125 -5.75 C 9.914062 -4.375 9.550781 -3.066406 9.21875 -1.828125 C 9.007812 -1.035156 8.859375 -0.390625 8.765625 0.109375 C 8.671875 0.609375 8.601562 0.929688 8.5625 1.078125 C 8.476562 1.398438 8.332031 1.703125 8.125 1.984375 C 7.914062 2.265625 7.695312 2.507812 7.46875 2.71875 C 7.25 2.9375 7.023438 3.101562 6.796875 3.21875 C 6.578125 3.332031 6.410156 3.375 6.296875 3.34375 C 5.609375 3.15625 5.117188 2.796875 4.828125 2.265625 C 4.546875 1.734375 4.398438 1.082031 4.390625 0.3125 C 4.390625 -0.457031 4.484375 -1.316406 4.671875 -2.265625 C 4.859375 -3.210938 5.085938 -4.179688 5.359375 -5.171875 C 5.984375 -7.535156 6.675781 -9.890625 7.4375 -12.234375 C 8.207031 -14.585938 9.003906 -16.828125 9.828125 -18.953125 L 6.171875 -19.46875 C 6.109375 -19.488281 6.046875 -19.492188 5.984375 -19.484375 C 5.921875 -19.472656 5.859375 -19.476562 5.796875 -19.5 C 5.429688 -19.59375 5.160156 -19.753906 4.984375 -19.984375 C 4.816406 -20.222656 4.703125 -20.46875 4.640625 -20.71875 C 4.585938 -20.976562 4.578125 -21.226562 4.609375 -21.46875 C 4.640625 -21.71875 4.675781 -21.910156 4.71875 -22.046875 C 4.78125 -22.304688 4.878906 -22.539062 5.015625 -22.75 C 5.160156 -22.957031 5.34375 -23.0625 5.5625 -23.0625 C 6.007812 -23.101562 6.753906 -23.082031 7.796875 -23 C 8.835938 -22.914062 10.003906 -22.804688 11.296875 -22.671875 C 11.910156 -24.148438 12.5 -25.5 13.0625 -26.71875 C 13.625 -27.9375 14.132812 -28.984375 14.59375 -29.859375 C 15.050781 -30.742188 15.4375 -31.425781 15.75 -31.90625 C 16.0625 -32.382812 16.289062 -32.601562 16.4375 -32.5625 C 16.46875 -32.5625 16.507812 -32.539062 16.5625 -32.5 C 16.613281 -32.457031 16.65625 -32.4375 16.6875 -32.4375 C 16.8125 -32.40625 16.921875 -32.441406 17.015625 -32.546875 C 17.109375 -32.648438 17.253906 -32.675781 17.453125 -32.625 C 17.617188 -32.582031 17.785156 -32.484375 17.953125 -32.328125 C 18.128906 -32.171875 18.273438 -31.992188 18.390625 -31.796875 C 18.515625 -31.609375 18.613281 -31.414062 18.6875 -31.21875 C 18.757812 -31.03125 18.785156 -30.882812 18.765625 -30.78125 Z M 18.765625 -30.78125 "/></g></g></g><g fill="#000000" fill-opacity="1"><g transform="translate(215.214357, 72.090782)"><g><path d="M 23.765625 -1.359375 C 23.679688 -1.160156 23.585938 -0.921875 23.484375 -0.640625 C 23.390625 -0.367188 23.269531 -0.0625 23.125 0.28125 C 22.9375 0.707031 22.640625 1.210938 22.234375 1.796875 C 21.835938 2.390625 21.34375 2.972656 20.75 3.546875 C 20.164062 4.128906 19.488281 4.664062 18.71875 5.15625 C 17.945312 5.644531 17.097656 6.023438 16.171875 6.296875 C 15.253906 6.566406 14.253906 6.671875 13.171875 6.609375 C 12.097656 6.554688 10.96875 6.273438 9.78125 5.765625 C 8.71875 5.296875 7.71875 4.617188 6.78125 3.734375 C 5.851562 2.859375 5.117188 1.796875 4.578125 0.546875 C 4.046875 -0.703125 3.773438 -2.113281 3.765625 -3.6875 C 3.765625 -5.269531 4.164062 -6.976562 4.96875 -8.8125 C 5.46875 -9.96875 6.101562 -11.035156 6.875 -12.015625 C 7.65625 -12.992188 8.503906 -13.867188 9.421875 -14.640625 C 10.347656 -15.421875 11.332031 -16.078125 12.375 -16.609375 C 13.414062 -17.148438 14.441406 -17.5625 15.453125 -17.84375 C 16.460938 -18.125 17.4375 -18.257812 18.375 -18.25 C 19.320312 -18.25 20.175781 -18.085938 20.9375 -17.765625 C 22.238281 -17.191406 23.226562 -16.507812 23.90625 -15.71875 C 24.582031 -14.9375 25.039062 -14.128906 25.28125 -13.296875 C 25.53125 -12.460938 25.601562 -11.65625 25.5 -10.875 C 25.40625 -10.09375 25.238281 -9.425781 25 -8.875 C 24.757812 -8.320312 24.359375 -7.757812 23.796875 -7.1875 C 23.234375 -6.613281 22.519531 -6.144531 21.65625 -5.78125 C 20.789062 -5.425781 19.789062 -5.242188 18.65625 -5.234375 C 17.519531 -5.222656 16.257812 -5.519531 14.875 -6.125 C 14.144531 -6.445312 13.53125 -6.835938 13.03125 -7.296875 C 12.53125 -7.765625 12.125 -8.25 11.8125 -8.75 C 11.5 -9.257812 11.265625 -9.769531 11.109375 -10.28125 C 10.960938 -10.789062 10.851562 -11.242188 10.78125 -11.640625 C 9.96875 -10.679688 9.238281 -9.457031 8.59375 -7.96875 C 8.144531 -6.9375 7.890625 -5.945312 7.828125 -5 C 7.773438 -4.050781 7.882812 -3.175781 8.15625 -2.375 C 8.425781 -1.582031 8.851562 -0.875 9.4375 -0.25 C 10.019531 0.375 10.742188 0.875 11.609375 1.25 C 12.679688 1.71875 13.703125 1.941406 14.671875 1.921875 C 15.640625 1.898438 16.546875 1.738281 17.390625 1.4375 C 18.242188 1.144531 19.03125 0.765625 19.75 0.296875 C 20.46875 -0.160156 21.109375 -0.59375 21.671875 -1 C 22.242188 -1.40625 22.726562 -1.734375 23.125 -1.984375 C 23.519531 -2.234375 23.832031 -2.300781 24.0625 -2.1875 C 24.175781 -2.132812 24.191406 -2.019531 24.109375 -1.84375 C 24.066406 -1.757812 24.019531 -1.675781 23.96875 -1.59375 C 23.914062 -1.507812 23.847656 -1.429688 23.765625 -1.359375 Z M 20.03125 -14.921875 C 19.707031 -15.066406 19.257812 -15.175781 18.6875 -15.25 C 18.113281 -15.332031 17.46875 -15.328125 16.75 -15.234375 C 16.039062 -15.148438 15.28125 -14.9375 14.46875 -14.59375 C 13.65625 -14.25 12.84375 -13.71875 12.03125 -13 C 12.351562 -13.019531 12.625 -13.03125 12.84375 -13.03125 C 13.0625 -13.03125 13.210938 -13.015625 13.296875 -12.984375 C 13.328125 -12.972656 13.363281 -12.921875 13.40625 -12.828125 C 13.507812 -11.953125 13.804688 -11.226562 14.296875 -10.65625 C 14.785156 -10.082031 15.421875 -9.625 16.203125 -9.28125 C 16.804688 -9.019531 17.375 -8.898438 17.90625 -8.921875 C 18.4375 -8.941406 18.914062 -9.046875 19.34375 -9.234375 C 19.769531 -9.429688 20.128906 -9.691406 20.421875 -10.015625 C 20.722656 -10.347656 20.957031 -10.707031 21.125 -11.09375 C 21.476562 -11.90625 21.5625 -12.664062 21.375 -13.375 C 21.195312 -14.09375 20.75 -14.609375 20.03125 -14.921875 Z M 20.03125 -14.921875 "/></g></g></g><g fill="#000000" fill-opacity="1"><g transform="translate(132.933856, 320.193182)"><g><path d="M 43.34375 -26.53125 C 42.945312 -25.800781 42.347656 -25.15625 41.546875 -24.59375 C 40.742188 -24.039062 39.898438 -23.625 39.015625 -23.34375 C 38.890625 -23.257812 38.671875 -23.207031 38.359375 -23.1875 C 38.054688 -23.164062 37.734375 -23.140625 37.390625 -23.109375 C 37.046875 -23.085938 36.707031 -23.078125 36.375 -23.078125 C 36.050781 -23.078125 35.800781 -23.097656 35.625 -23.140625 C 35.457031 -23.140625 35.34375 -23.179688 35.28125 -23.265625 C 35.21875 -23.359375 35.160156 -23.453125 35.109375 -23.546875 C 35.054688 -23.640625 34.988281 -23.734375 34.90625 -23.828125 C 34.820312 -23.921875 34.691406 -24 34.515625 -24.0625 C 34.285156 -24.132812 34.164062 -24.226562 34.15625 -24.34375 C 34.144531 -24.457031 34.226562 -24.644531 34.40625 -24.90625 C 34.46875 -25 34.570312 -25.113281 34.71875 -25.25 C 34.875 -25.382812 35.09375 -25.550781 35.375 -25.75 C 35.570312 -25.863281 35.753906 -26.003906 35.921875 -26.171875 C 36.097656 -26.347656 36.175781 -26.535156 36.15625 -26.734375 C 36.144531 -26.941406 36.007812 -27.144531 35.75 -27.34375 C 35.488281 -27.550781 35.039062 -27.753906 34.40625 -27.953125 C 33.75 -28.160156 32.878906 -28.347656 31.796875 -28.515625 C 30.628906 -28.722656 29.378906 -28.8125 28.046875 -28.78125 C 26.722656 -28.75 25.40625 -28.640625 24.09375 -28.453125 C 22.789062 -28.265625 21.5625 -28.007812 20.40625 -27.6875 C 19.257812 -27.375 18.289062 -27.019531 17.5 -26.625 C 16.71875 -26.226562 16.160156 -25.800781 15.828125 -25.34375 C 15.492188 -24.882812 15.5 -24.425781 15.84375 -23.96875 C 16.15625 -23.5625 16.679688 -23.132812 17.421875 -22.6875 C 18.160156 -22.238281 19.023438 -21.769531 20.015625 -21.28125 C 21.015625 -20.789062 22.082031 -20.265625 23.21875 -19.703125 C 24.363281 -19.148438 25.488281 -18.5625 26.59375 -17.9375 C 27.707031 -17.320312 28.742188 -16.664062 29.703125 -15.96875 C 30.671875 -15.28125 31.484375 -14.546875 32.140625 -13.765625 C 32.578125 -13.179688 32.9375 -12.648438 33.21875 -12.171875 C 33.507812 -11.691406 33.71875 -11.238281 33.84375 -10.8125 C 33.976562 -10.382812 34.066406 -9.984375 34.109375 -9.609375 C 34.160156 -9.234375 34.191406 -8.867188 34.203125 -8.515625 C 34.210938 -8.285156 34.273438 -8.007812 34.390625 -7.6875 C 34.503906 -7.375 34.617188 -7.003906 34.734375 -6.578125 C 34.847656 -6.160156 34.925781 -5.691406 34.96875 -5.171875 C 35.007812 -4.648438 34.957031 -4.070312 34.8125 -3.4375 C 34.507812 -2.1875 33.894531 -1.097656 32.96875 -0.171875 C 32.050781 0.753906 30.988281 1.535156 29.78125 2.171875 C 28.582031 2.816406 27.3125 3.332031 25.96875 3.71875 C 24.632812 4.113281 23.394531 4.394531 22.25 4.5625 C 21.21875 4.71875 20.148438 4.820312 19.046875 4.875 C 17.941406 4.9375 16.820312 4.9375 15.6875 4.875 C 14.550781 4.820312 13.421875 4.703125 12.296875 4.515625 C 11.171875 4.335938 10.085938 4.085938 9.046875 3.765625 C 7.304688 3.210938 5.75 2.457031 4.375 1.5 C 3 0.539062 1.929688 -0.675781 1.171875 -2.15625 C 0.816406 -2.90625 0.609375 -3.613281 0.546875 -4.28125 C 0.492188 -4.945312 0.554688 -5.566406 0.734375 -6.140625 C 0.953125 -6.835938 1.304688 -7.46875 1.796875 -8.03125 C 2.285156 -8.59375 2.84375 -9.09375 3.46875 -9.53125 C 4.101562 -9.96875 4.765625 -10.332031 5.453125 -10.625 C 6.140625 -10.914062 6.789062 -11.113281 7.40625 -11.21875 C 8.269531 -11.394531 9.15625 -11.550781 10.0625 -11.6875 C 10.96875 -11.820312 11.875 -11.914062 12.78125 -11.96875 C 13.6875 -12.019531 14.570312 -12.019531 15.4375 -11.96875 C 16.3125 -11.925781 17.128906 -11.8125 17.890625 -11.625 C 18.222656 -11.570312 18.640625 -11.484375 19.140625 -11.359375 C 19.640625 -11.242188 20.101562 -11.117188 20.53125 -10.984375 C 20.8125 -10.890625 21.019531 -10.738281 21.15625 -10.53125 C 21.289062 -10.332031 21.320312 -10.175781 21.25 -10.0625 C 21.09375 -9.894531 20.894531 -9.847656 20.65625 -9.921875 C 20.425781 -9.992188 20.144531 -10.046875 19.8125 -10.078125 C 19.414062 -10.097656 19.035156 -10.140625 18.671875 -10.203125 C 18.316406 -10.273438 17.984375 -10.316406 17.671875 -10.328125 C 15.378906 -10.515625 13.382812 -10.460938 11.6875 -10.171875 C 9.988281 -9.890625 8.582031 -9.5 7.46875 -9 C 6.351562 -8.507812 5.53125 -7.976562 5 -7.40625 C 4.46875 -6.832031 4.207031 -6.34375 4.21875 -5.9375 C 4.25 -5.375 4.472656 -4.875 4.890625 -4.4375 C 5.304688 -4 5.8125 -3.613281 6.40625 -3.28125 C 7 -2.957031 7.617188 -2.6875 8.265625 -2.46875 C 8.921875 -2.25 9.484375 -2.078125 9.953125 -1.953125 C 11.054688 -1.671875 12.316406 -1.453125 13.734375 -1.296875 C 15.160156 -1.140625 16.628906 -1.054688 18.140625 -1.046875 C 19.648438 -1.035156 21.148438 -1.117188 22.640625 -1.296875 C 24.140625 -1.472656 25.5 -1.753906 26.71875 -2.140625 C 27.945312 -2.523438 29 -3.019531 29.875 -3.625 C 30.757812 -4.238281 31.34375 -5 31.625 -5.90625 C 31.71875 -6.195312 31.769531 -6.5 31.78125 -6.8125 C 31.789062 -7.132812 31.769531 -7.476562 31.71875 -7.84375 C 31.601562 -8.476562 31.210938 -9.109375 30.546875 -9.734375 C 29.890625 -10.367188 29.054688 -10.992188 28.046875 -11.609375 C 27.035156 -12.222656 25.925781 -12.835938 24.71875 -13.453125 C 23.507812 -14.078125 22.316406 -14.695312 21.140625 -15.3125 C 19.960938 -15.9375 18.859375 -16.566406 17.828125 -17.203125 C 16.796875 -17.835938 15.96875 -18.484375 15.34375 -19.140625 C 14.632812 -19.878906 14.148438 -20.539062 13.890625 -21.125 C 13.628906 -21.707031 13.582031 -22.351562 13.75 -23.0625 C 13.75 -23.144531 13.734375 -23.289062 13.703125 -23.5 C 13.671875 -23.71875 13.625 -23.945312 13.5625 -24.1875 C 13.507812 -24.4375 13.453125 -24.671875 13.390625 -24.890625 C 13.335938 -25.117188 13.304688 -25.296875 13.296875 -25.421875 C 13.160156 -26.054688 13.191406 -26.691406 13.390625 -27.328125 C 13.617188 -28.035156 14.015625 -28.710938 14.578125 -29.359375 C 15.140625 -30.003906 15.75 -30.519531 16.40625 -30.90625 C 17.632812 -31.65625 19.117188 -32.234375 20.859375 -32.640625 C 22.597656 -33.054688 24.441406 -33.316406 26.390625 -33.421875 C 28.335938 -33.523438 30.296875 -33.484375 32.265625 -33.296875 C 34.234375 -33.117188 36.046875 -32.800781 37.703125 -32.34375 C 38.390625 -32.144531 39.132812 -31.859375 39.9375 -31.484375 C 40.738281 -31.109375 41.453125 -30.660156 42.078125 -30.140625 C 42.703125 -29.628906 43.15625 -29.066406 43.4375 -28.453125 C 43.726562 -27.835938 43.695312 -27.195312 43.34375 -26.53125 Z M 43.34375 -26.53125 "/></g></g></g><g fill="#000000" fill-opacity="1"><g transform="translate(169.167898, 330.560697)"><g><path d="M 27.03125 -22.65625 C 26.976562 -22.5625 26.765625 -22.242188 26.390625 -21.703125 C 26.023438 -21.160156 25.554688 -20.472656 24.984375 -19.640625 C 24.410156 -18.816406 23.757812 -17.878906 23.03125 -16.828125 C 22.300781 -15.773438 21.550781 -14.679688 20.78125 -13.546875 C 20.007812 -12.421875 19.242188 -11.296875 18.484375 -10.171875 C 17.722656 -9.054688 17.007812 -8.007812 16.34375 -7.03125 C 15.675781 -6.0625 15.097656 -5.195312 14.609375 -4.4375 C 14.117188 -3.675781 13.757812 -3.101562 13.53125 -2.71875 C 13.289062 -2.34375 12.953125 -1.753906 12.515625 -0.953125 C 12.085938 -0.148438 11.59375 0.769531 11.03125 1.8125 C 10.46875 2.863281 9.863281 3.988281 9.21875 5.1875 C 8.582031 6.382812 7.945312 7.59375 7.3125 8.8125 C 6.675781 10.03125 6.0625 11.207031 5.46875 12.34375 C 4.882812 13.488281 4.359375 14.507812 3.890625 15.40625 C 3.421875 16.3125 3.03125 17.054688 2.71875 17.640625 C 2.414062 18.222656 2.242188 18.570312 2.203125 18.6875 C 2.003906 19.113281 1.828125 19.378906 1.671875 19.484375 C 1.523438 19.585938 1.3125 19.660156 1.03125 19.703125 C 0.894531 19.722656 0.789062 19.679688 0.71875 19.578125 C 0.644531 19.472656 0.578125 19.347656 0.515625 19.203125 C 0.460938 19.066406 0.410156 18.945312 0.359375 18.84375 C 0.304688 18.738281 0.25 18.671875 0.1875 18.640625 C -0.0703125 18.585938 -0.210938 18.523438 -0.234375 18.453125 C -0.265625 18.390625 -0.328125 18.253906 -0.421875 18.046875 C -0.472656 17.972656 -0.523438 17.929688 -0.578125 17.921875 C -0.640625 17.910156 -0.695312 17.898438 -0.75 17.890625 C -0.8125 17.890625 -0.859375 17.878906 -0.890625 17.859375 C -0.921875 17.835938 -0.9375 17.78125 -0.9375 17.6875 C -0.875 17.351562 -0.816406 17.019531 -0.765625 16.6875 C -0.722656 16.351562 -0.671875 16.050781 -0.609375 15.78125 C -0.535156 15.570312 -0.3125 15.128906 0.0625 14.453125 C 0.445312 13.785156 0.914062 12.96875 1.46875 12 C 2.03125 11.039062 2.660156 9.972656 3.359375 8.796875 C 4.054688 7.617188 4.757812 6.425781 5.46875 5.21875 C 6.175781 4.019531 6.878906 2.828125 7.578125 1.640625 C 8.273438 0.453125 8.898438 -0.628906 9.453125 -1.609375 C 9.234375 -2.160156 8.925781 -2.882812 8.53125 -3.78125 C 8.144531 -4.675781 7.722656 -5.664062 7.265625 -6.75 C 6.816406 -7.84375 6.332031 -9 5.8125 -10.21875 C 5.300781 -11.4375 4.800781 -12.644531 4.3125 -13.84375 C 3.820312 -15.050781 3.347656 -16.21875 2.890625 -17.34375 C 2.429688 -18.46875 2.03125 -19.472656 1.6875 -20.359375 C 1.351562 -21.242188 1.09375 -21.976562 0.90625 -22.5625 C 0.71875 -23.15625 0.625 -23.519531 0.625 -23.65625 C 0.65625 -23.894531 0.710938 -24.054688 0.796875 -24.140625 C 0.878906 -24.222656 0.984375 -24.257812 1.109375 -24.25 C 1.242188 -24.25 1.382812 -24.210938 1.53125 -24.140625 C 1.675781 -24.078125 1.820312 -24.007812 1.96875 -23.9375 C 2.195312 -23.832031 2.414062 -23.726562 2.625 -23.625 C 2.84375 -23.53125 3.003906 -23.5625 3.109375 -23.71875 C 3.179688 -23.875 3.351562 -23.945312 3.625 -23.9375 C 3.894531 -23.9375 4.113281 -23.878906 4.28125 -23.765625 C 4.34375 -23.710938 4.394531 -23.691406 4.4375 -23.703125 C 4.488281 -23.710938 4.539062 -23.75 4.59375 -23.8125 C 4.65625 -23.875 4.71875 -23.9375 4.78125 -24 C 4.851562 -24.0625 4.941406 -24.113281 5.046875 -24.15625 C 5.265625 -24.175781 5.457031 -24.125 5.625 -24 C 5.800781 -23.875 5.957031 -23.609375 6.09375 -23.203125 C 6.164062 -22.910156 6.335938 -22.394531 6.609375 -21.65625 C 6.890625 -20.914062 7.210938 -20.054688 7.578125 -19.078125 C 7.953125 -18.097656 8.363281 -17.039062 8.8125 -15.90625 C 9.269531 -14.78125 9.722656 -13.671875 10.171875 -12.578125 C 10.628906 -11.492188 11.066406 -10.46875 11.484375 -9.5 C 11.898438 -8.53125 12.269531 -7.726562 12.59375 -7.09375 C 13.164062 -8.039062 13.785156 -9.050781 14.453125 -10.125 C 15.128906 -11.207031 15.8125 -12.285156 16.5 -13.359375 C 17.195312 -14.429688 17.882812 -15.476562 18.5625 -16.5 C 19.25 -17.53125 19.890625 -18.476562 20.484375 -19.34375 C 21.078125 -20.21875 21.609375 -20.984375 22.078125 -21.640625 C 22.546875 -22.296875 22.921875 -22.796875 23.203125 -23.140625 C 23.367188 -23.328125 23.453125 -23.445312 23.453125 -23.5 C 23.460938 -23.5625 23.546875 -23.617188 23.703125 -23.671875 C 23.816406 -23.710938 23.921875 -23.75 24.015625 -23.78125 C 24.109375 -23.8125 24.25 -23.800781 24.4375 -23.75 C 24.613281 -23.707031 24.75 -23.679688 24.84375 -23.671875 C 24.945312 -23.671875 25.03125 -23.609375 25.09375 -23.484375 C 25.113281 -23.429688 25.164062 -23.410156 25.25 -23.421875 C 25.332031 -23.429688 25.425781 -23.457031 25.53125 -23.5 C 25.644531 -23.550781 25.757812 -23.597656 25.875 -23.640625 C 26 -23.679688 26.117188 -23.6875 26.234375 -23.65625 C 26.367188 -23.644531 26.503906 -23.617188 26.640625 -23.578125 C 26.773438 -23.535156 26.894531 -23.472656 27 -23.390625 C 27.101562 -23.304688 27.160156 -23.203125 27.171875 -23.078125 C 27.191406 -22.960938 27.144531 -22.820312 27.03125 -22.65625 Z M 27.03125 -22.65625 "/></g></g></g><g fill="#000000" fill-opacity="1"><g transform="translate(195.289455, 331.609492)"><g><path d="M 19.609375 -4.34375 C 19.648438 -4.101562 19.609375 -3.832031 19.484375 -3.53125 C 19.359375 -3.226562 19.140625 -3.054688 18.828125 -3.015625 C 18.660156 -2.984375 18.519531 -3.007812 18.40625 -3.09375 C 18.289062 -3.175781 18.1875 -3.210938 18.09375 -3.203125 C 17.957031 -3.179688 17.832031 -3.109375 17.71875 -2.984375 C 17.601562 -2.867188 17.40625 -2.789062 17.125 -2.75 C 16.726562 -2.6875 16.367188 -2.769531 16.046875 -3 C 15.734375 -3.226562 15.453125 -3.546875 15.203125 -3.953125 C 14.960938 -4.367188 14.753906 -4.828125 14.578125 -5.328125 C 14.410156 -5.828125 14.296875 -6.300781 14.234375 -6.75 C 14.097656 -7.625 13.972656 -8.617188 13.859375 -9.734375 C 13.753906 -10.859375 13.65625 -12.015625 13.5625 -13.203125 C 13.46875 -14.390625 13.363281 -15.566406 13.25 -16.734375 C 13.132812 -17.898438 13 -18.976562 12.84375 -19.96875 C 12.644531 -21.289062 12.398438 -22.304688 12.109375 -23.015625 C 11.816406 -23.722656 11.453125 -24.039062 11.015625 -23.96875 C 10.585938 -23.851562 10.203125 -23.421875 9.859375 -22.671875 C 9.523438 -21.921875 9.207031 -20.984375 8.90625 -19.859375 C 8.601562 -18.734375 8.332031 -17.46875 8.09375 -16.0625 C 7.851562 -14.664062 7.632812 -13.242188 7.4375 -11.796875 C 7.238281 -10.359375 7.054688 -8.957031 6.890625 -7.59375 C 6.734375 -6.226562 6.59375 -5.007812 6.46875 -3.9375 C 6.34375 -2.863281 6.21875 -1.988281 6.09375 -1.3125 C 5.976562 -0.644531 5.890625 -0.304688 5.828125 -0.296875 C 5.671875 -0.273438 5.546875 -0.296875 5.453125 -0.359375 C 5.367188 -0.421875 5.28125 -0.484375 5.1875 -0.546875 C 5.101562 -0.617188 5.007812 -0.679688 4.90625 -0.734375 C 4.800781 -0.785156 4.65625 -0.796875 4.46875 -0.765625 C 4.289062 -0.734375 4.175781 -0.691406 4.125 -0.640625 C 4.082031 -0.585938 4.019531 -0.523438 3.9375 -0.453125 C 3.863281 -0.390625 3.773438 -0.328125 3.671875 -0.265625 C 3.566406 -0.210938 3.375 -0.160156 3.09375 -0.109375 C 2.738281 -0.0546875 2.375 -0.09375 2 -0.21875 C 1.632812 -0.34375 1.425781 -0.585938 1.375 -0.953125 C 1.332031 -1.191406 1.289062 -1.675781 1.25 -2.40625 C 1.21875 -3.144531 1.171875 -4.050781 1.109375 -5.125 C 1.054688 -6.195312 0.988281 -7.394531 0.90625 -8.71875 C 0.820312 -10.050781 0.726562 -11.421875 0.625 -12.828125 C 0.519531 -14.242188 0.394531 -15.65625 0.25 -17.0625 C 0.113281 -18.46875 -0.0507812 -19.800781 -0.25 -21.0625 C -0.34375 -21.675781 -0.441406 -22.25 -0.546875 -22.78125 C -0.660156 -23.3125 -0.753906 -23.816406 -0.828125 -24.296875 C -0.847656 -24.410156 -0.800781 -24.476562 -0.6875 -24.5 C -0.457031 -24.53125 -0.269531 -24.507812 -0.125 -24.4375 C 0.0078125 -24.375 0.113281 -24.300781 0.1875 -24.21875 C 0.269531 -24.132812 0.320312 -24.046875 0.34375 -23.953125 C 0.375 -23.867188 0.398438 -23.828125 0.421875 -23.828125 C 0.472656 -23.835938 0.53125 -23.882812 0.59375 -23.96875 C 0.664062 -24.050781 0.734375 -24.132812 0.796875 -24.21875 C 0.867188 -24.3125 0.9375 -24.398438 1 -24.484375 C 1.070312 -24.566406 1.140625 -24.609375 1.203125 -24.609375 L 1.5 -24.65625 C 1.789062 -24.707031 1.984375 -24.785156 2.078125 -24.890625 C 2.179688 -24.992188 2.25 -25.101562 2.28125 -25.21875 C 2.3125 -25.332031 2.332031 -25.429688 2.34375 -25.515625 C 2.351562 -25.609375 2.40625 -25.664062 2.5 -25.6875 C 2.5625 -25.695312 2.648438 -25.664062 2.765625 -25.59375 C 2.878906 -25.519531 3.003906 -25.390625 3.140625 -25.203125 C 3.273438 -25.015625 3.40625 -24.757812 3.53125 -24.4375 C 3.664062 -24.125 3.769531 -23.738281 3.84375 -23.28125 C 3.945312 -22.644531 4.046875 -21.851562 4.140625 -20.90625 C 4.242188 -19.957031 4.347656 -18.9375 4.453125 -17.84375 C 4.566406 -16.757812 4.675781 -15.664062 4.78125 -14.5625 C 4.882812 -13.46875 5 -12.472656 5.125 -11.578125 C 5.195312 -12.441406 5.304688 -13.398438 5.453125 -14.453125 C 5.597656 -15.515625 5.785156 -16.601562 6.015625 -17.71875 C 6.253906 -18.832031 6.523438 -19.921875 6.828125 -20.984375 C 7.140625 -22.054688 7.503906 -23.019531 7.921875 -23.875 C 8.347656 -24.738281 8.820312 -25.453125 9.34375 -26.015625 C 9.875 -26.585938 10.46875 -26.925781 11.125 -27.03125 C 12.164062 -27.195312 13.050781 -27.140625 13.78125 -26.859375 C 14.507812 -26.578125 15.117188 -26.125 15.609375 -25.5 C 16.109375 -24.875 16.5 -24.117188 16.78125 -23.234375 C 17.070312 -22.347656 17.300781 -21.390625 17.46875 -20.359375 C 17.601562 -19.460938 17.707031 -18.519531 17.78125 -17.53125 C 17.863281 -16.539062 17.9375 -15.546875 18 -14.546875 C 18.070312 -13.554688 18.144531 -12.582031 18.21875 -11.625 C 18.300781 -10.664062 18.410156 -9.769531 18.546875 -8.9375 C 18.703125 -7.914062 18.898438 -7 19.140625 -6.1875 C 19.390625 -5.382812 19.546875 -4.769531 19.609375 -4.34375 Z M 19.609375 -4.34375 "/></g></g></g><g fill="#000000" fill-opacity="1"><g transform="translate(220.248772, 327.534587)"><g><path d="M 17.765625 -16.28125 C 18.148438 -15.226562 18.316406 -14.070312 18.265625 -12.8125 C 18.210938 -11.5625 17.9375 -10.335938 17.4375 -9.140625 C 16.9375 -7.941406 16.195312 -6.832031 15.21875 -5.8125 C 14.238281 -4.789062 13.003906 -4.003906 11.515625 -3.453125 C 10.296875 -2.992188 8.96875 -2.789062 7.53125 -2.84375 C 6.101562 -2.90625 4.710938 -3.226562 3.359375 -3.8125 C 2.015625 -4.40625 0.773438 -5.269531 -0.359375 -6.40625 C -1.503906 -7.550781 -2.394531 -8.976562 -3.03125 -10.6875 C -3.664062 -12.375 -3.9375 -14.097656 -3.84375 -15.859375 C -3.757812 -17.617188 -3.394531 -19.265625 -2.75 -20.796875 C -2.101562 -22.328125 -1.222656 -23.675781 -0.109375 -24.84375 C 1.003906 -26.019531 2.289062 -26.878906 3.75 -27.421875 C 5.082031 -27.921875 6.28125 -28.160156 7.34375 -28.140625 C 8.40625 -28.128906 9.3125 -27.988281 10.0625 -27.71875 C 10.8125 -27.445312 11.410156 -27.097656 11.859375 -26.671875 C 12.304688 -26.253906 12.585938 -25.890625 12.703125 -25.578125 C 12.960938 -24.878906 13.023438 -24.253906 12.890625 -23.703125 C 12.753906 -23.148438 12.539062 -22.691406 12.25 -22.328125 C 11.957031 -21.972656 11.644531 -21.71875 11.3125 -21.5625 C 10.988281 -21.414062 10.753906 -21.394531 10.609375 -21.5 C 10.503906 -21.550781 10.410156 -21.5625 10.328125 -21.53125 C 10.242188 -21.5 10.160156 -21.445312 10.078125 -21.375 C 10.003906 -21.300781 9.929688 -21.226562 9.859375 -21.15625 C 9.796875 -21.09375 9.726562 -21.070312 9.65625 -21.09375 C 9.550781 -21.09375 9.515625 -21.171875 9.546875 -21.328125 C 9.585938 -21.492188 9.585938 -21.617188 9.546875 -21.703125 C 9.492188 -21.867188 9.421875 -22.054688 9.328125 -22.265625 C 9.234375 -22.472656 9.191406 -22.71875 9.203125 -23 C 9.242188 -23.382812 9.175781 -23.769531 9 -24.15625 C 8.820312 -24.539062 8.546875 -24.859375 8.171875 -25.109375 C 7.796875 -25.367188 7.300781 -25.519531 6.6875 -25.5625 C 6.070312 -25.601562 5.347656 -25.46875 4.515625 -25.15625 C 3.929688 -24.9375 3.304688 -24.484375 2.640625 -23.796875 C 1.984375 -23.117188 1.445312 -22.234375 1.03125 -21.140625 C 0.613281 -20.054688 0.382812 -18.789062 0.34375 -17.34375 C 0.300781 -15.894531 0.609375 -14.296875 1.265625 -12.546875 C 1.546875 -11.796875 1.9375 -11.046875 2.4375 -10.296875 C 2.945312 -9.546875 3.578125 -8.914062 4.328125 -8.40625 C 5.085938 -7.894531 5.972656 -7.570312 6.984375 -7.4375 C 7.992188 -7.300781 9.148438 -7.476562 10.453125 -7.96875 C 11.316406 -8.289062 12.066406 -8.707031 12.703125 -9.21875 C 13.335938 -9.726562 13.878906 -10.273438 14.328125 -10.859375 C 14.785156 -11.441406 15.160156 -12.035156 15.453125 -12.640625 C 15.742188 -13.253906 15.972656 -13.816406 16.140625 -14.328125 C 16.304688 -14.835938 16.421875 -15.269531 16.484375 -15.625 C 16.546875 -15.988281 16.582031 -16.21875 16.59375 -16.3125 C 16.632812 -16.425781 16.695312 -16.523438 16.78125 -16.609375 C 16.875 -16.703125 16.984375 -16.753906 17.109375 -16.765625 C 17.234375 -16.785156 17.351562 -16.757812 17.46875 -16.6875 C 17.59375 -16.613281 17.691406 -16.476562 17.765625 -16.28125 Z M 17.765625 -16.28125 "/></g></g></g><g clip-path="url(#a8b48ed43a)"><g clip-path="url(#0e55efe5d3)"><path fill="#000000" d="M 36.753906 180.300781 L 51.148438 180.300781 L 51.148438 194.699219 L 36.753906 194.699219 Z M 36.753906 180.300781 " fill-opacity="1" fill-rule="nonzero"/></g></g></svg>